<svg width="25" height="25" viewBox="0 0 25 25" fill="none" xmlns="http://www.w3.org/2000/svg">
<path d="M19.4555 20.424L13.5023 14.4698C10.8541 16.3526 7.20489 15.8921 5.10742 13.4104C3.00996 10.9287 3.16397 7.25378 5.46172 4.9563C7.75887 2.6578 11.4341 2.50313 13.9163 4.60048C16.3984 6.69783 16.8592 10.3474 14.9763 12.9959L20.9294 18.95L19.4565 20.423L19.4555 20.424ZM9.88047 5.20836C7.90516 5.20792 6.20098 6.5945 5.79972 8.52862C5.39845 10.4627 6.41038 12.4128 8.22285 13.1982C10.0353 13.9836 12.1502 13.3884 13.287 11.773C14.4238 10.1576 14.2701 7.966 12.919 6.52505L13.5492 7.15005L12.8388 6.44171L12.8263 6.42921C12.0469 5.64502 10.9861 5.20539 9.88047 5.20836Z" fill="white"/>
</svg>
