<svg width="226" height="49" viewBox="0 0 226 49" fill="none" xmlns="http://www.w3.org/2000/svg">
<path fill-rule="evenodd" clip-rule="evenodd" d="M21.1563 0.946859C20.8804 1.19631 20.4289 1.57936 20.1529 1.79812C19.8769 2.01683 19.6379 2.21221 19.6216 2.23223C19.6054 2.25224 19.353 2.45455 19.0608 2.68182C18.7686 2.90909 18.41 3.20068 18.2639 3.32981C17.9349 3.62068 17.9124 3.64015 17.4219 4.06009C16.8234 4.57262 16.8655 4.58456 15.5878 3.53936C15.0954 3.13654 14.5199 2.67206 14.3088 2.50712C14.0978 2.34212 13.7634 2.07031 13.5659 1.90296C12.5225 1.0195 12.0109 0.604207 11.967 0.605171C11.8925 0.606859 11.4828 0.901646 10.0893 1.95631C9.69195 2.257 9.29485 2.55728 9.20672 2.62359C8.45502 3.18941 4.79739 6.05994 3.56518 7.05106C2.77824 7.6841 1.64496 8.50125 1.55405 8.50125C1.5204 8.50125 1.49909 11.7947 1.49909 16.9972V25.4932L1.74998 25.6994C2.03226 25.9315 2.89193 26.5261 2.94518 26.5261C2.96424 26.5261 3.01194 26.5553 3.05114 26.591C3.09033 26.6267 3.42793 26.8562 3.8013 27.1011C4.17468 27.3459 4.5997 27.6289 4.7458 27.73C4.8919 27.8311 5.21067 28.0459 5.45417 28.2072C5.69768 28.3685 6.24224 28.7308 6.66431 29.0122C9.34001 30.7963 9.89614 31.1669 10.8189 31.7811C11.3831 32.1567 11.8793 32.4979 11.9215 32.5394C12.038 32.6539 12.0567 32.6438 12.6264 32.1607C12.9186 31.9129 13.7953 31.1838 14.5745 30.5403C15.3537 29.8969 16.1557 29.2323 16.3569 29.0635C16.7979 28.6933 16.7266 28.6951 17.1542 29.0429C17.8237 29.5873 18.2945 29.9774 18.5591 30.2066C18.7052 30.3332 19.2304 30.7651 19.7263 31.1666C20.606 31.8788 20.6318 31.8946 20.7889 31.8152C20.939 31.7394 20.9666 31.7478 21.2001 31.9399C21.5041 32.1902 21.4356 32.2135 22.5141 31.4922C24.3416 30.27 29.428 26.8889 30.3812 26.2627C30.7783 26.0018 31.2 25.7102 31.3183 25.6147C31.4366 25.5191 31.5599 25.441 31.5924 25.441C31.6914 25.441 31.7296 25.6314 31.6502 25.7295C31.5835 25.812 31.5914 25.8128 31.723 25.737C32.1125 25.5125 32.0772 26.3793 32.0772 17.0614C32.0772 9.12657 32.0712 8.63345 31.9739 8.52192C31.9171 8.45682 30.8611 7.63093 29.6274 6.68659C27.5647 5.10776 25.9775 3.88436 23.8504 2.23379C23.4003 1.88451 22.8558 1.46916 22.6403 1.31073C22.3258 1.07954 22.0486 0.849079 21.6692 0.503533C21.663 0.497927 21.4323 0.697466 21.1563 0.946859ZM127.994 0.935948C127.646 1.05019 127.163 1.49086 127.02 1.82435C126.917 2.06633 126.909 2.38004 126.881 7.29557L126.852 12.5101L121.407 12.5255L115.963 12.5409L115.947 7.34109L115.931 2.14132L115.801 1.87004C115.494 1.23146 115.023 0.93643 114.307 0.935948C113.554 0.935465 113.169 1.1637 112.855 1.79704L112.684 2.14132L112.668 15.4941C112.652 29.8668 112.639 29.2924 112.972 29.7371C113.571 30.5399 115.053 30.5754 115.593 29.7998C115.954 29.2811 115.928 29.7959 115.96 22.5189L115.99 15.8893L116.123 15.896C116.196 15.8997 118.646 15.9058 121.568 15.9094L126.881 15.9161V22.5511V29.186L127.029 29.5044C127.57 30.673 129.355 30.6339 129.952 29.4404L130.098 29.1484L130.114 15.7353C130.125 6.39723 130.11 2.22746 130.066 2.01044C129.899 1.1851 128.867 0.649661 127.994 0.935948ZM45.6377 0.970732C44.2229 1.31459 43.9968 3.41819 45.3001 4.11018L45.5658 4.25125L48.5455 4.28139L51.5252 4.31153L51.533 16.6998C51.5385 25.6226 51.5591 29.1454 51.6065 29.293C52.0531 30.6841 54.1859 30.7407 54.6864 29.3746C54.8026 29.0576 54.8041 28.8925 54.8041 16.6674V4.28139L57.6229 4.27994C61.0533 4.27813 61.1712 4.25722 61.5943 3.57583C62.1803 2.63221 61.9086 1.58918 60.9434 1.07671L60.6777 0.935646L53.2693 0.926062C49.0455 0.920576 45.7649 0.939806 45.6377 0.970732ZM68.3517 0.9597C67.7598 1.06122 67.3073 1.51473 67.2 2.11395C67.0876 2.74126 67.1509 29.284 67.2654 29.5402C67.3875 29.8136 67.7729 30.1666 68.0636 30.2714C68.4399 30.4071 80.5472 30.3927 80.8411 30.2561C81.8694 29.7785 82.1015 28.2766 81.27 27.481C81.1779 27.3927 80.9829 27.2571 80.8368 27.1795L80.5712 27.0385L75.5093 27.0218L70.4473 27.0051V21.4455L70.4474 15.886H74.004C78.1399 15.886 78.0318 15.8985 78.4991 15.3676C79.2458 14.5195 79.0375 13.2518 78.0667 12.7362L77.6978 12.5402H74.0726H70.4473V8.41245V4.28458L75.5388 4.26795C81.1491 4.24956 80.8092 4.27307 81.2559 3.87255C81.6079 3.55684 81.7518 3.18585 81.7518 2.59345C81.7518 1.86836 81.4803 1.41834 80.8368 1.07671L80.5712 0.935646L74.5795 0.927448C71.2841 0.922927 68.4816 0.937455 68.3517 0.9597ZM88.2718 0.984295C87.3056 1.26232 86.7149 2.39192 87.092 3.24023C87.1543 3.38045 87.9596 4.64189 88.8814 6.04342C89.8034 7.44496 91.35 9.79885 92.3185 11.2743C93.2869 12.7497 94.3272 14.3298 94.6303 14.7856C94.9334 15.2414 95.1814 15.6278 95.1814 15.6441C95.1814 15.6605 93.3838 18.4205 91.1868 21.7775C86.8023 28.477 86.8894 28.3265 87.0287 28.9622C87.2315 29.8875 88.1288 30.4931 89.0126 30.3013C89.703 30.1515 89.5326 30.3754 93.0095 25.0491C94.7627 22.3635 96.4172 19.8211 96.6862 19.3993L97.1753 18.6325L98.5607 20.7557C99.3227 21.9235 100.935 24.398 102.143 26.2548C103.352 28.1115 104.438 29.7347 104.557 29.8619C105.321 30.6777 106.651 30.4497 107.205 29.4078C107.371 29.097 107.354 28.2661 107.175 27.9222C107.1 27.7782 105.27 24.9499 103.108 21.6369L99.177 15.6134L100.745 13.2178C101.607 11.9002 103.38 9.19451 104.685 7.20515C107.513 2.89402 107.311 3.24945 107.312 2.59206C107.312 2.11232 107.299 2.05759 107.116 1.76611C106.559 0.878799 105.367 0.637966 104.667 1.27125C104.506 1.41737 103.169 3.41228 100.819 7.01586C98.8383 10.0522 97.2002 12.5305 97.1784 12.5233C97.133 12.5081 97.0457 12.3758 93.0311 6.24061C91.3822 3.72075 89.9496 1.56856 89.8475 1.458C89.4265 1.0019 88.8319 0.823157 88.2718 0.984295ZM140.488 0.967536C140.26 0.995267 139.968 1.05025 139.838 1.08967C139.132 1.30428 138.983 1.35902 138.672 1.51805C136.932 2.40633 135.755 4.02036 135.469 5.90905C135.34 6.76062 135.339 24.5219 135.468 25.3807C135.851 27.933 138.002 30.0234 140.553 30.3218C141.24 30.4022 147 30.4018 147.688 30.3213C150.244 30.0222 152.48 27.8003 152.794 25.2474C152.873 24.6042 152.874 6.66428 152.795 6.0442C152.505 3.75873 150.734 1.74423 148.457 1.10824L147.867 0.943363L144.384 0.930221C142.468 0.923047 140.715 0.939806 140.488 0.967536ZM168.823 0.945352C168.053 1.12988 167.735 1.50472 167.451 2.56114C167.31 3.08596 167.207 3.46949 166.963 4.37181C166.9 4.60391 166.793 4.99726 166.725 5.24593C166.657 5.4946 166.539 5.92864 166.462 6.21047C166.386 6.49229 166.252 6.98059 166.165 7.29557C166.078 7.61055 165.972 8.00391 165.93 8.16969C165.887 8.33547 165.781 8.72882 165.693 9.0438C165.421 10.0221 165.321 10.3875 165.225 10.7619C165.174 10.9608 165.092 11.2592 165.044 11.425C164.996 11.5908 164.835 12.174 164.687 12.7211C164.332 14.0279 164.14 14.7331 164.039 15.1023C163.993 15.2681 163.874 15.7157 163.773 16.097C163.672 16.4783 163.566 16.8581 163.537 16.941C163.508 17.0238 163.442 17.268 163.39 17.4835C163.337 17.699 163.259 17.9974 163.217 18.1466C163.174 18.2958 163.08 18.6349 163.008 18.9002C162.936 19.1654 162.843 19.5045 162.801 19.6537C162.759 19.8029 162.587 20.4404 162.419 21.0704C162.25 21.7004 162.077 22.3379 162.034 22.4871C161.992 22.6363 161.806 23.3144 161.623 23.9941C161.44 24.6738 161.239 25.4063 161.177 25.6218C161.116 25.8373 160.943 26.4748 160.793 27.0385C160.643 27.6021 160.491 28.1421 160.455 28.2384C160.258 28.7609 160.494 29.6623 160.914 29.9895C161.422 30.3849 162.202 30.477 162.732 30.204C163.3 29.9112 163.544 29.5004 163.799 28.411C163.87 28.1048 164.054 27.4268 164.425 26.1041C164.532 25.7205 164.766 24.8654 164.927 24.2654C164.971 24.0996 165.075 23.7199 165.157 23.4215C165.239 23.123 165.375 22.6212 165.46 22.3062C165.545 21.9912 165.666 21.5436 165.73 21.3115C165.888 20.7346 166.028 20.2188 166.346 19.0509C166.495 18.5038 166.666 17.8799 166.727 17.6644C166.856 17.202 167.041 16.5236 167.375 15.2832C167.598 14.4562 167.718 14.0158 168.024 12.902C168.083 12.6864 168.185 12.3067 168.252 12.058C168.46 11.2789 168.913 9.62861 168.998 9.34522C169.042 9.19601 169.108 8.95187 169.144 8.80266C169.18 8.65346 169.261 8.35506 169.323 8.13954C169.427 7.78043 169.625 7.0498 170.1 5.27607C170.198 4.91135 170.306 4.53802 170.34 4.44645L170.402 4.27988L172.505 4.29574L174.608 4.31153L174.637 16.8204C174.665 28.6988 174.672 29.3392 174.772 29.527C175.061 30.0674 175.582 30.3544 176.26 30.3477C176.982 30.3406 177.415 30.0874 177.708 29.5006L177.854 29.2087L177.87 15.7956C177.881 6.52768 177.866 2.28932 177.823 2.08104C177.729 1.62674 177.501 1.32779 177.087 1.1165L176.733 0.935646L172.837 0.926363C170.694 0.921239 168.888 0.929799 168.823 0.945352ZM188.244 0.96609C186.905 1.12295 185.853 1.67219 184.79 2.76803C183.924 3.66155 183.57 4.30888 183.241 5.60034L183.108 6.12004V15.6449V25.1697L183.246 25.7122C183.818 27.9683 185.401 29.5956 187.624 30.2144C188.124 30.3535 188.14 30.3541 191.845 30.3541H195.564L196.157 30.1903C198.322 29.593 199.884 27.9623 200.446 25.7122L200.581 25.1697V15.675C200.581 6.72161 200.575 6.15284 200.474 5.69806C199.974 3.44387 198.368 1.72313 196.188 1.10384L195.623 0.943363L192.14 0.930522C190.224 0.923469 188.471 0.939444 188.244 0.96609ZM209.291 0.970671C208.848 1.06049 208.517 1.31356 208.315 1.7171L208.137 2.07254V15.6406V29.2087L208.266 29.4539C208.577 30.0469 209.092 30.3482 209.79 30.3451C210.51 30.342 210.943 30.0893 211.238 29.5006L211.384 29.2087L211.399 16.745L211.415 4.28139H216.34C221.668 4.28139 221.7 4.27958 222.115 3.9567C223.081 3.20575 222.924 1.65887 221.822 1.08437L221.537 0.935646L215.546 0.926483C212.25 0.92142 209.436 0.941313 209.291 0.970671ZM12.2315 3.07023C12.2505 3.12931 12.2286 3.14335 12.1596 3.11635C12.0922 3.08988 11.9226 3.18821 11.63 3.42319C11.3933 3.61339 11.1261 3.82323 11.0361 3.88955C10.9462 3.95586 10.7103 4.14093 10.5118 4.3008C10.3134 4.46067 10.1105 4.61464 10.061 4.64291C10.0115 4.67118 9.99083 4.71459 10.015 4.7393C10.0393 4.76402 10.1055 4.73701 10.1621 4.67932C10.2188 4.62163 10.4522 4.43391 10.6808 4.2621C10.9094 4.09035 11.2886 3.80503 11.5236 3.6281L11.9507 3.30636L12.5542 3.77639C12.8861 4.03495 13.4277 4.46459 13.7575 4.73117C14.0875 4.99768 14.5194 5.34564 14.7174 5.5043L15.0775 5.79282L13.7634 6.85243C13.0407 7.43525 12.4123 7.94778 12.3671 7.99143C12.294 8.0619 12.2429 10.4651 12.3133 10.5174C12.3232 10.5248 12.6102 10.7472 12.9511 11.0116C13.292 11.2761 14.0225 11.8421 14.5745 12.2695C15.1264 12.6968 15.7949 13.2151 16.0602 13.4212C16.3253 13.6274 16.5577 13.7802 16.5767 13.7609C16.5956 13.7416 16.611 12.865 16.611 11.8129V9.89995L15.9174 9.31218C15.536 8.98888 15.1882 8.69102 15.1446 8.65033C15.0801 8.5901 15.2215 8.45187 15.9044 7.90751L16.7434 7.23873L17.0803 7.49324C17.9109 8.1208 18.4123 8.51692 18.4214 8.55279C18.4268 8.57419 18.0749 8.89851 17.6392 9.2736L16.8472 9.95553V11.8407C16.8472 12.8775 16.864 13.743 16.8846 13.7641C16.9052 13.785 17.0446 13.7059 17.1945 13.5882C17.3444 13.4704 18.2905 12.7438 19.297 11.9735L21.1269 10.573V9.25208V7.9312L19.8583 6.89161C19.1605 6.31988 18.584 5.83098 18.5771 5.80518C18.5702 5.77944 18.8606 5.52775 19.2223 5.24593C19.5841 4.9641 20.2658 4.43041 20.7373 4.05997C21.3994 3.5396 21.615 3.39962 21.6853 3.44459C21.8173 3.52905 21.9132 3.60241 25.2577 6.18033C26.9353 7.47341 28.3992 8.59921 28.5109 8.6821C28.6226 8.76499 28.9118 8.98201 29.1535 9.16437L29.5929 9.49593L29.6101 16.3013L29.6274 23.1068L29.4503 23.2408C29.3529 23.3146 29.0474 23.5159 28.7714 23.6883C28.4955 23.8607 27.8845 24.253 27.4137 24.5602C25.108 26.0645 21.8512 28.1628 21.7766 28.1921C21.6936 28.2246 19.5626 26.676 19.5626 26.5832C19.5626 26.5579 19.9348 26.2334 20.3899 25.8623L21.2171 25.1874L21.187 23.104C21.1704 21.9581 21.1469 21.0105 21.1348 20.9981C21.1227 20.9857 20.8371 21.2026 20.5 21.48C19.0108 22.7059 16.7665 24.4764 16.7018 24.4764C16.6629 24.4764 16.5971 24.4118 16.5557 24.3328C16.5143 24.2538 16.0914 23.875 15.616 23.4911C13.872 22.0827 12.3888 20.9221 12.3313 20.9209C12.2227 20.9186 12.2814 25.1445 12.3915 25.2571C12.4417 25.3085 12.8186 25.6082 13.2289 25.9232C13.6391 26.2382 13.9751 26.5227 13.9755 26.5555C13.9761 26.6115 13.0766 27.3402 12.262 27.9436L11.8975 28.2136L10.4872 27.3246C9.71161 26.8357 7.91795 25.7038 6.50144 24.8093L3.92586 23.183L3.89522 22.8199C3.85733 22.3706 3.81642 20.1151 3.73879 14.1981C3.68448 10.058 3.68767 9.61071 3.77138 9.55621C3.82232 9.52305 4.48211 9.02119 5.23753 8.44096C5.99295 7.86073 6.68379 7.33174 6.77281 7.26543C6.86177 7.19912 7.09955 7.01622 7.3012 6.859C7.77669 6.48819 7.71459 6.536 8.25821 6.12324C8.51788 5.92605 8.7657 5.72916 8.80879 5.68576C8.85188 5.64235 8.94486 5.57544 9.0154 5.5371C9.17065 5.45264 9.94053 4.83063 9.94053 4.7897C9.94053 4.74618 9.60022 4.93426 9.5769 4.99063C9.56586 5.01739 9.27791 5.24918 8.937 5.50569C8.5961 5.7622 8.23973 6.03251 8.1451 6.10636C6.43249 7.4426 5.47212 8.13026 5.32436 8.12598C5.02614 8.11736 4.67485 8.40931 8.64185 5.3683C11.88 2.88606 11.7965 2.9452 12.0316 2.96835C12.1265 2.97763 12.2165 3.02351 12.2315 3.07023ZM11.5919 3.2459C11.5098 3.30148 11.2338 3.50976 10.9784 3.70869C10.723 3.90763 10.4709 4.09752 10.418 4.13068C10.3651 4.16384 10.0098 4.43511 9.62838 4.73352C9.24704 5.03192 8.79598 5.37765 8.62609 5.50177C8.4562 5.6259 8.27733 5.76196 8.22863 5.80409C8.17993 5.84617 7.95762 6.01587 7.7346 6.18117C7.51158 6.34653 7.24665 6.55637 7.14588 6.64752C7.04512 6.73867 6.94589 6.8133 6.9254 6.8133C6.90492 6.8133 6.82115 6.87431 6.73928 6.94894C6.65734 7.02357 6.40776 7.21949 6.18462 7.38431C5.96143 7.54919 5.75228 7.70568 5.71981 7.73209C5.46622 7.93826 5.38458 8.01873 5.43038 8.01741C5.4792 8.01602 6.7858 7.04726 6.98697 6.86334C7.03461 6.81981 7.16188 6.723 7.26985 6.64813C7.37782 6.57331 7.53809 6.44394 7.62604 6.36063C7.71394 6.27732 7.83242 6.19407 7.8892 6.17562C7.94599 6.15718 7.99251 6.11859 7.99251 6.0899C7.99251 6.0612 8.03902 6.0225 8.09581 6.00387C8.1526 5.98531 8.27149 5.90887 8.35998 5.83406C8.44841 5.75924 8.6154 5.63024 8.73093 5.54735C8.84651 5.46446 9.0265 5.32116 9.13092 5.22893C9.23529 5.13663 9.39379 5.01552 9.48304 4.9597C9.5723 4.90388 9.64538 4.83696 9.64538 4.81092C9.64538 4.78494 9.67885 4.76366 9.71976 4.76366C9.76066 4.76366 9.86043 4.70265 9.94142 4.62802C10.0225 4.55339 10.2696 4.35674 10.4906 4.19096C10.7118 4.02518 10.9937 3.80816 11.1173 3.70869C11.2409 3.60923 11.4565 3.43965 11.5965 3.33192C11.8593 3.12961 11.8559 3.06691 11.5919 3.2459ZM147.79 4.40087C148.514 4.62929 149.083 5.18148 149.419 5.98163L149.578 6.36118L149.596 15.1927C149.613 24.2899 149.6 24.9399 149.379 25.4428C149.09 26.1031 148.501 26.6493 147.827 26.8817C147.293 27.0661 141.047 27.0795 140.474 26.8975C139.792 26.6807 139.249 26.2105 138.905 25.5375L138.717 25.1697V15.6449V6.12004L138.886 5.78848C139.248 5.07961 139.716 4.65666 140.399 4.42125C140.971 4.2243 147.176 4.20718 147.79 4.40087ZM195.505 4.39249C196.361 4.65846 196.993 5.33147 197.218 6.21637C197.365 6.79642 197.32 24.9337 197.171 25.3204C196.895 26.0341 196.272 26.6342 195.551 26.8822C195.051 27.0538 188.83 27.08 188.269 26.9128C187.391 26.6509 186.763 26.0179 186.498 25.1252C186.336 24.5826 186.32 6.78961 186.48 6.21975C186.739 5.30163 187.321 4.68541 188.202 4.3978C188.719 4.22912 194.965 4.2246 195.505 4.39249ZM12.2969 11.2291C12.2731 11.3024 12.2669 14.4942 12.2898 14.8785L12.3195 15.378L13.0042 15.9074C13.3809 16.1986 13.9148 16.6126 14.1908 16.8274C15.8939 18.1531 16.622 18.6982 16.6507 18.6688C16.7136 18.6045 16.6669 14.8295 16.6013 14.6825C16.5238 14.5089 16.2748 14.2988 14.1022 12.575C12.5809 11.368 12.3159 11.1704 12.2969 11.2291ZM19.9168 12.2181C19.2837 12.7324 18.3407 13.4968 17.8212 13.9168L16.8767 14.6803L16.8611 16.6357C16.8525 17.7111 16.8658 18.6107 16.8906 18.6347C16.9154 18.6587 17.8787 17.9528 19.0313 17.066L21.1269 15.4536L21.1424 13.364C21.151 12.2147 21.1377 11.2762 21.1129 11.2786C21.0881 11.281 20.5499 11.7038 19.9168 12.2181ZM12.3018 18.1277V20.2333L12.5527 20.4169C12.7694 20.5753 13.6423 21.2494 16.0746 23.1362C16.3801 23.3733 16.6524 23.5532 16.6796 23.536C16.7383 23.499 16.7433 22.3008 16.6914 20.7087L16.6541 19.5633L16.3814 19.292C16.116 19.0282 13.1637 16.6562 12.4142 16.1047C12.3043 16.0238 12.3018 16.0685 12.3018 18.1277ZM20.0644 16.9818C19.5124 17.4303 18.5628 18.2015 17.954 18.6956L16.8472 19.5939V21.5529C16.8472 23.5184 16.8588 23.627 17.0489 23.4365C17.0903 23.3951 18.0089 22.683 19.0903 21.8541C21.4422 20.0514 21.2375 20.2411 21.1925 19.9056C21.1727 19.7578 21.1564 18.854 21.1564 17.8971C21.1564 16.9402 21.1365 16.1593 21.1122 16.1618C21.0878 16.1643 20.6163 16.5333 20.0644 16.9818ZM31.4562 25.6237C31.4355 25.6579 31.1085 25.8918 30.7296 26.1435C29.7806 26.7739 29.5979 26.9005 29.5979 26.9277C29.5979 26.9406 29.6709 26.9135 29.7602 26.8674C29.8495 26.8214 29.9594 26.7971 30.0045 26.8134C30.0581 26.8328 30.0709 26.8172 30.0414 26.7686C30.009 26.715 30.0299 26.7049 30.1155 26.7327C30.2546 26.7777 30.4351 26.6249 30.3886 26.5013C30.3695 26.4503 30.4243 26.3963 30.5353 26.3568C30.6574 26.3133 30.7188 26.3131 30.7329 26.3562C30.7443 26.391 30.7888 26.375 30.8333 26.3203C30.903 26.2345 30.8996 26.2272 30.8066 26.2636C30.6322 26.332 30.7615 26.1764 30.9712 26.0657C31.0731 26.0119 31.1937 25.9297 31.2393 25.8832C31.3073 25.8138 31.3392 25.8125 31.4156 25.8759C31.4947 25.9415 31.5033 25.9379 31.4721 25.8529C31.4502 25.793 31.4696 25.7389 31.5201 25.7191C31.6143 25.6822 31.6367 25.5615 31.5494 25.5615C31.5188 25.5615 31.4769 25.5895 31.4562 25.6237ZM31.2507 25.9534C31.2507 25.9699 31.264 25.9835 31.2803 25.9835C31.2965 25.9835 31.3098 25.9699 31.3098 25.9534C31.3098 25.9368 31.2965 25.9232 31.2803 25.9232C31.264 25.9232 31.2507 25.9368 31.2507 25.9534ZM31.1327 26.0739C31.1327 26.0905 31.146 26.1041 31.1622 26.1041C31.1784 26.1041 31.1917 26.0905 31.1917 26.0739C31.1917 26.0574 31.1784 26.0438 31.1622 26.0438C31.146 26.0438 31.1327 26.0574 31.1327 26.0739ZM30.9556 26.1945C30.9556 26.2111 30.9689 26.2246 30.9851 26.2246C31.0013 26.2246 31.0146 26.2111 31.0146 26.1945C31.0146 26.1779 31.0013 26.1644 30.9851 26.1644C30.9689 26.1644 30.9556 26.1779 30.9556 26.1945ZM30.5424 26.4959C30.5424 26.5125 30.5556 26.5261 30.5719 26.5261C30.5881 26.5261 30.6014 26.5125 30.6014 26.4959C30.6014 26.4793 30.5881 26.4658 30.5719 26.4658C30.5556 26.4658 30.5424 26.4793 30.5424 26.4959ZM30.2908 26.6279C30.2359 26.684 30.1712 26.7097 30.147 26.685C30.1228 26.6602 30.1421 26.6149 30.1899 26.584C30.3336 26.4912 30.3974 26.519 30.2908 26.6279ZM29.1551 27.1944C28.3475 27.7258 28.3071 27.7589 28.3706 27.8372C28.4042 27.8787 28.4616 27.9122 28.4982 27.9117C28.5442 27.911 28.5429 27.8965 28.4942 27.8648C28.3816 27.7918 28.5039 27.6564 28.6825 27.6564C28.8014 27.6564 28.8223 27.6414 28.763 27.5984C28.7041 27.5558 28.7163 27.5478 28.8092 27.5684C28.8786 27.5838 28.9716 27.5701 29.0158 27.5378C29.0772 27.4931 29.0717 27.4872 28.9928 27.5131C28.8528 27.5591 28.8613 27.45 29.0037 27.3721C29.1527 27.2907 29.2017 27.2931 29.1495 27.3794C29.1232 27.4228 29.1334 27.4325 29.1765 27.4053C29.2145 27.3813 29.2315 27.3384 29.2143 27.3099C29.1971 27.2815 29.2364 27.2408 29.3018 27.2196C29.3672 27.1984 29.4208 27.1539 29.4208 27.1208C29.4208 27.0871 29.4795 27.0774 29.5536 27.0986C29.6266 27.1196 29.6599 27.1144 29.6274 27.0869C29.5949 27.0595 29.5551 27.02 29.5388 26.9992C29.5226 26.9784 29.3499 27.0662 29.1551 27.1944ZM28.0343 27.9254C27.9057 28.0016 27.8163 28.0711 27.6506 28.2241C27.5906 28.2793 27.5274 28.31 27.51 28.2922C27.4926 28.2745 27.4354 28.3038 27.3828 28.3575C27.3303 28.4111 27.163 28.5289 27.0111 28.6192C26.8592 28.7094 26.6247 28.8654 26.49 28.9658C26.3554 29.0662 26.0954 29.2406 25.9124 29.3533C25.6063 29.5419 25.5318 29.6532 25.6784 29.7031C25.7101 29.7139 25.7882 29.6797 25.8518 29.627C25.9154 29.5744 25.9343 29.5485 25.8937 29.5695C25.8531 29.5905 25.8199 29.5789 25.8199 29.5438C25.8199 29.4806 25.8846 29.4606 26.056 29.471C26.1216 29.4751 26.1244 29.4674 26.0665 29.4416C26.0142 29.4182 26.0584 29.358 26.2003 29.2596C26.3169 29.1787 26.4425 29.1315 26.4794 29.1548C26.5226 29.1821 26.5301 29.1701 26.5005 29.1211C26.4666 29.0652 26.4876 29.0558 26.5795 29.0856C26.6828 29.119 26.6976 29.107 26.6644 29.0167C26.6301 28.9234 26.6379 28.9186 26.7169 28.9842C26.7934 29.0476 26.8159 29.0444 26.8454 28.966C26.866 28.9111 26.8564 28.8865 26.8228 28.9077C26.6582 29.0116 26.7951 28.8602 26.9847 28.7286C27.2133 28.57 27.3292 28.5318 27.2661 28.636C27.2461 28.6691 27.2452 28.6963 27.2641 28.6963C27.2831 28.6963 27.3249 28.6254 27.3572 28.5388C27.4006 28.4223 27.4462 28.3895 27.5329 28.4126C27.5973 28.4298 27.6362 28.4211 27.6193 28.3932C27.6024 28.3653 27.7352 28.2431 27.9144 28.1216C28.0936 28.0002 28.2402 27.8899 28.2402 27.8766C28.2402 27.8338 28.1549 27.854 28.0343 27.9254ZM28.2992 28.003C28.2992 28.0196 28.3125 28.0332 28.3287 28.0332C28.3449 28.0332 28.3582 28.0196 28.3582 28.003C28.3582 27.9864 28.3449 27.9729 28.3287 27.9729C28.3125 27.9729 28.2992 27.9864 28.2992 28.003ZM28.087 28.1028C28.0608 28.1459 28.0707 28.156 28.1129 28.1293C28.181 28.0864 28.2043 28.0332 28.1551 28.0332C28.1407 28.0332 28.1101 28.0645 28.087 28.1028ZM27.8269 28.3044C27.8269 28.321 27.8402 28.3346 27.8565 28.3346C27.8727 28.3346 27.886 28.321 27.886 28.3044C27.886 28.2878 27.8727 28.2743 27.8565 28.2743C27.8402 28.2743 27.8269 28.2878 27.8269 28.3044ZM27.4137 28.5154C27.4137 28.5486 27.4419 28.5757 27.4762 28.5757C27.5106 28.5757 27.5223 28.5486 27.5023 28.5154C27.4822 28.4823 27.4541 28.4551 27.4398 28.4551C27.4254 28.4551 27.4137 28.4823 27.4137 28.5154ZM27.0005 28.847C27.0005 28.8636 27.0138 28.8771 27.03 28.8771C27.0463 28.8771 27.0595 28.8636 27.0595 28.847C27.0595 28.8304 27.0463 28.8168 27.03 28.8168C27.0138 28.8168 27.0005 28.8304 27.0005 28.847ZM26.1741 29.3895C26.1741 29.4061 26.1874 29.4197 26.2036 29.4197C26.2198 29.4197 26.2331 29.4061 26.2331 29.3895C26.2331 29.373 26.2198 29.3594 26.2036 29.3594C26.1874 29.3594 26.1741 29.373 26.1741 29.3895ZM25.7609 29.6005C25.7609 29.6337 25.7327 29.6608 25.6983 29.6608C25.664 29.6608 25.6522 29.6337 25.6723 29.6005C25.6924 29.5674 25.7205 29.5402 25.7348 29.5402C25.7492 29.5402 25.7609 29.5674 25.7609 29.6005ZM24.9661 29.9773C24.7111 30.1514 24.4204 30.3533 24.32 30.4259C24.2196 30.4986 24.1084 30.5597 24.0729 30.5616C24.0373 30.5635 23.9601 30.6193 23.9014 30.6856C23.8426 30.7519 23.771 30.8062 23.7422 30.8062C23.7134 30.8062 23.6577 30.8333 23.6185 30.8664C23.4579 31.0021 22.9192 31.3433 22.8092 31.3789C22.7444 31.3999 22.6912 31.4381 22.6912 31.4637C22.6912 31.4893 22.6248 31.5412 22.5437 31.5789C22.3782 31.6559 22.3533 31.7411 22.4816 31.7914C22.536 31.8127 22.5563 31.7959 22.5373 31.7453C22.505 31.6595 22.6678 31.568 22.7549 31.623C22.7841 31.6414 22.7909 31.6112 22.7702 31.5559C22.7397 31.4747 22.7571 31.4634 22.8609 31.4971C22.9456 31.5245 22.9839 31.5147 22.9731 31.4682C22.9445 31.3442 23.1573 31.2439 23.2267 31.3488C23.2781 31.4265 23.2841 31.4251 23.2693 31.3388C23.2589 31.2783 23.3411 31.1765 23.476 31.0826C23.7147 30.9166 23.7829 30.8902 23.7247 30.9864C23.7031 31.022 23.7302 31.0297 23.792 31.0054C23.8562 30.9803 23.8684 30.9557 23.8242 30.9407C23.7851 30.9274 23.7689 30.8904 23.7882 30.8584C23.8094 30.8233 23.8607 30.8313 23.9177 30.8786C23.999 30.9461 24.0063 30.9414 23.9708 30.8447C23.9398 30.7604 23.9516 30.7412 24.0181 30.7672C24.0695 30.7873 24.1007 30.7712 24.0925 30.7287C24.0844 30.6866 24.1287 30.663 24.1965 30.6731C24.2845 30.6862 24.2942 30.6766 24.2345 30.6354C24.1729 30.5929 24.171 30.5697 24.2263 30.5347C24.2664 30.5095 24.3201 30.5255 24.3475 30.5707C24.3746 30.6154 24.4173 30.631 24.4425 30.6053C24.4677 30.5795 24.4492 30.5305 24.4014 30.4963C24.3328 30.4472 24.3416 30.44 24.443 30.4626C24.5406 30.4843 24.563 30.4687 24.5363 30.3977C24.5144 30.3395 24.5254 30.3195 24.5652 30.3445C24.6004 30.3668 24.6427 30.3509 24.6592 30.3092C24.6821 30.2518 24.7057 30.2553 24.7573 30.3239C24.8152 30.4009 24.8218 30.4012 24.8019 30.326C24.7615 30.1744 25.1735 29.8778 25.2445 30.0074C25.2581 30.0323 25.26 30.0157 25.2488 29.9706C25.2355 29.9175 25.2609 29.9013 25.3205 29.9247C25.3712 29.9446 25.3983 29.9368 25.3806 29.9076C25.3628 29.8783 25.388 29.8388 25.4365 29.8197C25.5285 29.7837 25.56 29.6608 25.4771 29.6608C25.451 29.6608 25.221 29.8032 24.9661 29.9773ZM24.9344 30.2335C24.9344 30.2501 24.9477 30.2636 24.9639 30.2636C24.9802 30.2636 24.9934 30.2501 24.9934 30.2335C24.9934 30.2169 24.9802 30.2034 24.9639 30.2034C24.9477 30.2034 24.9344 30.2169 24.9344 30.2335ZM23.3996 31.2282C23.3464 31.2633 23.3391 31.287 23.3814 31.2876C23.42 31.288 23.4681 31.2613 23.4882 31.2282C23.5334 31.1533 23.513 31.1533 23.3996 31.2282ZM23.1045 31.4392C23.1045 31.4558 23.1177 31.4693 23.134 31.4693C23.1502 31.4693 23.1635 31.4558 23.1635 31.4392C23.1635 31.4226 23.1502 31.409 23.134 31.409C23.1177 31.409 23.1045 31.4226 23.1045 31.4392ZM22.6519 31.7507C22.6735 31.7727 22.7089 31.7727 22.7306 31.7507C22.7522 31.7285 22.7345 31.7105 22.6912 31.7105C22.648 31.7105 22.6303 31.7285 22.6519 31.7507ZM22.0386 31.9266C21.8215 32.0931 21.5865 32.2138 21.4669 32.2202C21.4266 32.2224 21.3913 32.2503 21.3887 32.2823C21.3805 32.3779 21.4911 32.385 21.5797 32.2944C21.6252 32.2479 21.7368 32.218 21.8276 32.2279C21.9514 32.2414 21.9846 32.2241 21.9602 32.159C21.9423 32.1112 21.9466 32.072 21.9699 32.0719C22.0404 32.0714 22.3715 31.7753 22.3042 31.7729C22.27 31.7717 22.1505 31.8409 22.0386 31.9266ZM20.8387 31.9246C20.8186 31.9782 20.8285 32.0024 20.8619 31.9813C20.894 31.9611 20.9497 31.963 20.9857 31.9857C21.0313 32.0146 21.0274 32.0418 20.9726 32.0764C20.9295 32.1036 20.9148 32.1469 20.94 32.1726C20.9652 32.1983 21.0079 32.1828 21.035 32.138C21.0952 32.0385 21.2352 32.1136 21.194 32.2233C21.1777 32.2666 21.2224 32.352 21.2932 32.4131C21.422 32.5242 21.422 32.5242 21.3149 32.3946C21.2393 32.303 21.2276 32.2525 21.2754 32.2223C21.3197 32.1944 21.2749 32.1199 21.1465 32.0077C20.9171 31.8073 20.886 31.799 20.8387 31.9246ZM22.3961 31.9214C22.3961 31.938 22.4094 31.9516 22.4256 31.9516C22.4418 31.9516 22.4551 31.938 22.4551 31.9214C22.4551 31.9049 22.4418 31.8913 22.4256 31.8913C22.4094 31.8913 22.3961 31.9049 22.3961 31.9214ZM21.6877 32.3736C21.6877 32.4178 21.7054 32.4358 21.7271 32.4138C21.7487 32.3917 21.7487 32.3555 21.7271 32.3334C21.7054 32.3113 21.6877 32.3294 21.6877 32.3736ZM21.4122 32.5946C21.4339 32.6167 21.4693 32.6167 21.491 32.5946C21.5126 32.5725 21.4949 32.5544 21.4516 32.5544C21.4083 32.5544 21.3906 32.5725 21.4122 32.5946ZM96.3867 33.6005C96.2941 33.8468 96.3846 34.0314 96.5981 34.0314C96.7998 34.0314 96.8047 34.0256 96.8047 33.7902C96.8047 33.5621 96.7943 33.5481 96.6124 33.5302C96.4841 33.5176 96.409 33.5409 96.3867 33.6005ZM86.1517 33.6958C86.086 33.8212 86.0627 37.4135 86.1264 37.5832C86.1472 37.6386 86.2312 37.6785 86.3267 37.6785C86.562 37.6785 86.5628 37.6715 86.5628 35.7144V33.9409H87.5073H88.4518L88.4527 35.7344C88.4537 37.6479 88.4608 37.699 88.7239 37.6683L88.8945 37.6484L88.9111 35.7495C88.9201 34.705 88.913 33.7895 88.8952 33.7149L88.8628 33.5792H87.5378C86.2882 33.5792 86.2093 33.5859 86.1517 33.6958ZM90.5769 34.6715C89.7228 35.0175 89.4683 36.6459 90.1518 37.392C90.4781 37.7481 91.0466 37.8654 91.6605 37.7033C92.0887 37.5902 92.1708 37.5316 92.1708 37.3396C92.1708 37.1673 92.1767 37.1676 91.708 37.3176C90.8696 37.586 90.2227 37.2361 90.2227 36.5142V36.2948L91.241 36.2784L92.2593 36.2619L92.2772 35.9787C92.3132 35.4085 92.0303 34.87 91.5981 34.6855C91.3782 34.5917 90.7936 34.5837 90.5769 34.6715ZM94.0673 34.669C93.9902 34.7005 93.8242 34.8095 93.6983 34.9113L93.4695 35.0965V34.8764C93.4695 34.6719 93.458 34.6577 93.3071 34.6754L93.1448 34.6945V36.7743V38.8541L93.2857 38.8744C93.4958 38.9048 93.5266 38.7993 93.5276 38.0448L93.5285 37.3561L93.6613 37.4814C94.3111 38.0944 95.3221 37.7121 95.5312 36.7743C95.8456 35.3644 95.0754 34.2568 94.0673 34.669ZM98.4576 34.7041C97.8867 35.0109 97.6902 35.402 97.6902 36.2317C97.6902 36.8329 97.6993 36.8798 97.8714 37.1647C98.4175 38.0688 99.7903 37.966 100.236 36.9877C100.623 36.1393 100.288 34.9368 99.5901 34.668C99.3396 34.5716 98.6641 34.5931 98.4576 34.7041ZM114.868 34.6987C114.336 34.9808 114.105 35.4375 114.108 36.2016C114.114 37.4298 114.833 38.0065 115.981 37.7033C116.409 37.5902 116.492 37.5316 116.492 37.3396C116.492 37.1663 116.515 37.1671 116.012 37.3233C115.282 37.5496 114.754 37.3327 114.61 36.7476C114.49 36.2608 114.425 36.292 115.548 36.292H116.553L116.619 36.1446C116.703 35.9565 116.547 35.2784 116.36 35.0208C116.086 34.6421 115.297 34.4716 114.868 34.6987ZM119.015 34.6692C118.848 34.7686 118.858 37.5244 119.026 37.6161C119.18 37.7001 120.17 37.6957 120.451 37.6098C121.095 37.4128 121.317 36.5547 120.832 36.1386C120.632 35.9673 120.612 35.931 120.701 35.8963C120.758 35.8738 120.844 35.7787 120.892 35.6848C121.091 35.2902 120.928 34.8741 120.505 34.7014C120.233 34.59 119.186 34.5674 119.015 34.6692ZM129.222 34.692C128.858 34.8246 128.6 35.1296 128.764 35.2334C128.794 35.2519 128.96 35.1996 129.133 35.117C129.829 34.786 130.364 34.9943 130.364 35.5968V35.9155L129.847 35.944C129.047 35.988 128.657 36.267 128.61 36.8287C128.544 37.6107 129.368 38.042 130.08 37.599C130.405 37.3972 130.417 37.3944 130.434 37.5191C130.448 37.6185 130.493 37.6484 130.629 37.6484H130.807V36.4427C130.807 35.0841 130.758 34.904 130.339 34.7009C130.095 34.5827 129.534 34.5782 129.222 34.692ZM96.421 36.1752V37.6862L96.6129 37.6673L96.8047 37.6484L96.8214 36.292C96.841 34.6984 96.8363 34.6644 96.597 34.6644H96.421V36.1752ZM101.682 34.9808C101.649 35.1549 101.591 35.5008 101.554 35.7495C101.414 36.6649 101.115 37.3148 100.834 37.3161L100.671 37.3168V38.0101V38.7034H100.819C100.965 38.7034 100.966 38.6973 100.966 38.1909V37.6785H102.292H103.618L103.635 38.1759C103.652 38.6702 103.653 38.6733 103.817 38.6925L103.981 38.7117L103.964 38.0294L103.947 37.347L103.697 37.3285L103.446 37.3099V35.9872V34.6644H102.594H101.742L101.682 34.9808ZM104.668 34.7018C104.645 34.7254 104.626 35.4048 104.626 36.2117V37.6785L104.789 37.6781C104.93 37.6776 105.052 37.5384 105.748 36.5833L106.545 35.489L106.574 36.5687L106.604 37.6484L106.775 37.6683C107.033 37.6984 107.045 37.633 107.046 36.1915C107.047 34.7044 107.041 34.6631 106.819 34.6674C106.686 34.67 106.544 34.8345 105.866 35.7736L105.069 36.8768L105.04 35.7856L105.01 34.6945L104.86 34.6767C104.778 34.6668 104.691 34.6782 104.668 34.7018ZM107.735 34.7046C107.641 34.8013 107.695 35.9005 107.805 36.1121C108.005 36.4968 108.243 36.6086 108.798 36.58C109.074 36.5659 109.321 36.5215 109.374 36.4765C109.457 36.4059 109.467 36.4539 109.467 36.9428C109.467 37.6043 109.491 37.6785 109.703 37.6785C109.934 37.6785 109.939 37.6454 109.939 36.1714C109.939 34.7371 109.929 34.6644 109.738 34.6644C109.504 34.6644 109.467 34.7727 109.467 35.4551V36.1012L109.169 36.1664C108.323 36.3516 108.109 36.1582 108.109 35.2099V34.6644H107.942C107.85 34.6644 107.757 34.6824 107.735 34.7046ZM110.943 36.1714V37.6785H111.113C111.335 37.6785 111.356 37.6113 111.356 36.8899V36.292H112.094H112.832L112.833 36.9099C112.834 37.6117 112.864 37.6963 113.104 37.6683L113.274 37.6484L113.291 36.292C113.31 34.7059 113.305 34.6644 113.073 34.6644C112.855 34.6644 112.832 34.7354 112.832 35.3927V35.9303H112.094H111.356V35.3927C111.356 34.7346 111.332 34.6644 111.113 34.6644H110.943V36.1714ZM121.899 34.7597C121.879 34.8122 121.863 35.4474 121.863 36.1714C121.863 38.1398 121.872 38.1428 123.026 36.5651L123.841 35.4517L123.87 36.55L123.9 37.6484H124.077H124.254V36.1714V34.6945L124.103 34.6765C123.968 34.6605 123.859 34.7842 123.137 35.7766C122.689 36.3917 122.319 36.8949 122.315 36.8949C122.31 36.895 122.315 36.432 122.325 35.8661C122.338 35.1346 122.323 34.8121 122.273 34.7507C122.179 34.6351 121.944 34.6408 121.899 34.7597ZM125.972 34.7682C125.954 34.8271 125.899 35.1602 125.848 35.5083C125.686 36.6347 125.405 37.2881 125.066 37.3279L124.903 37.347V38.0101V38.6732L125.066 38.6923L125.228 38.7114V38.1949V37.6785H126.556H127.885V38.1909V38.7034H128.064H128.243L128.226 38.0252L128.209 37.347L127.959 37.3285L127.71 37.31L127.694 36.0022L127.678 34.6945L126.841 34.6778C126.083 34.6627 126.001 34.6711 125.972 34.7682ZM131.823 34.7018C131.8 34.7254 131.781 35.4066 131.781 36.2155V37.6862L131.972 37.6673L132.164 37.6484L132.181 36.9702L132.198 36.292H132.961H133.725L133.741 36.9702L133.758 37.6484L133.95 37.6673L134.142 37.6862V36.1714V34.6567L133.95 34.6756L133.758 34.6945L133.741 35.3124L133.724 35.9303H132.961H132.198L132.181 35.3124C132.164 34.7009 132.163 34.6943 132.015 34.6767C131.932 34.6668 131.846 34.6782 131.823 34.7018ZM135.172 34.741C135.156 34.7831 135.15 35.4545 135.159 36.233L135.175 37.6484L135.346 37.6683C135.585 37.6963 135.616 37.6117 135.617 36.9099L135.618 36.292H136.354H137.09L137.106 36.9702L137.123 37.6484L137.315 37.6673L137.507 37.6862V36.1714V34.6567L137.315 34.6756L137.123 34.6945L137.106 35.3124L137.089 35.9303H136.353H135.618V35.3697C135.618 35.014 135.592 34.7826 135.547 34.7367C135.453 34.6412 135.208 34.644 135.172 34.741ZM139.307 34.69C139.275 34.7033 139.175 34.7304 139.087 34.7504C138.649 34.8489 138.325 35.4499 138.512 35.8179C138.602 35.9948 138.865 36.2267 138.979 36.2296C139.034 36.2309 138.999 36.3014 138.88 36.4277C138.686 36.6328 138.333 37.366 138.333 37.5636C138.333 37.6509 138.375 37.6785 138.508 37.6785C138.664 37.6785 138.699 37.6424 138.817 37.362C139.164 36.5345 139.351 36.3526 139.853 36.3524L140.104 36.3523L140.105 36.9401C140.106 37.611 140.138 37.6961 140.376 37.6683L140.547 37.6484L140.563 36.2551C140.576 35.0676 140.565 34.8505 140.488 34.7856C140.404 34.714 139.44 34.636 139.307 34.69ZM91.5877 35.1214C91.7407 35.2606 91.8756 35.5682 91.8756 35.7777V35.9303H91.0492C90.1104 35.9303 90.1026 35.9249 90.3432 35.4433C90.575 34.9792 91.2419 34.8067 91.5877 35.1214ZM94.735 35.0353C95.2471 35.2736 95.3057 36.806 94.8187 37.2245C94.5487 37.4565 94.3745 37.478 94.0757 37.3161C93.5934 37.0548 93.5285 36.9199 93.5285 36.179V35.5328L93.7499 35.3174C94.1199 34.9574 94.3969 34.8781 94.735 35.0353ZM99.6758 35.2614C100.025 35.6635 100.065 36.5157 99.7579 37.0128C99.4039 37.5854 98.5485 37.5469 98.2442 36.9446C98.0464 36.5531 98.0502 35.8201 98.252 35.448C98.5589 34.8823 99.2659 34.7897 99.6758 35.2614ZM115.909 35.1214C116.061 35.2606 116.196 35.5682 116.196 35.7777V35.9303H115.37C114.436 35.9303 114.449 35.9388 114.659 35.4644C114.872 34.9866 115.554 34.7991 115.909 35.1214ZM120.459 35.1467C120.744 35.5071 120.434 35.826 119.765 35.8605L119.325 35.8832V35.4169V34.9506L119.836 34.978C120.283 35.002 120.361 35.023 120.459 35.1467ZM103.032 36.1714V37.3168H102.226C101.449 37.3168 101.424 37.3129 101.518 37.2065C101.667 37.0386 101.885 36.333 102.002 35.644L102.106 35.0261H102.569H103.032V36.1714ZM127.294 36.1714V37.3168H126.494C125.664 37.3168 125.658 37.3148 125.85 37.0757C125.965 36.9325 126.157 36.2538 126.263 35.6138L126.361 35.0261H126.827H127.294V36.1714ZM140.114 35.5084L140.133 35.9909L139.75 35.9873C139.233 35.9826 138.976 35.8855 138.906 35.6682C138.781 35.2797 139.099 35.0325 139.731 35.0284L140.095 35.0261L140.114 35.5084ZM120.384 36.3373C120.651 36.4757 120.732 36.7162 120.604 36.9897C120.489 37.2366 120.214 37.3335 119.709 37.306L119.355 37.2867L119.338 36.7592L119.32 36.2317L119.751 36.2318C120.043 36.2319 120.246 36.2656 120.384 36.3373ZM130.364 36.6483C130.364 36.9696 130.347 37.0196 130.188 37.1556C129.654 37.6145 129.065 37.4531 129.065 36.8479C129.065 36.4591 129.323 36.3067 129.995 36.2972L130.364 36.292V36.6483ZM33.3168 39.909C32.9901 40.2426 33.3982 40.7485 33.7759 40.4783C34.0492 40.2829 33.8799 39.7885 33.5398 39.7885C33.4821 39.7885 33.3818 39.8427 33.3168 39.909ZM34.6788 39.9473C34.5233 40.1492 34.5252 40.184 34.7014 40.3639C34.9386 40.6062 35.3239 40.4739 35.3239 40.1502C35.3239 39.8177 34.885 39.6797 34.6788 39.9473ZM92.2341 39.9473C92.1668 40.0347 92.1117 40.1395 92.1117 40.1803C92.1117 40.3255 92.3559 40.5722 92.4997 40.5722C92.6854 40.5722 92.8791 40.3721 92.8791 40.1803C92.8791 39.8211 92.4505 39.6663 92.2341 39.9473ZM93.6465 39.909C93.3336 40.2287 93.7402 40.6795 94.1056 40.418C94.3613 40.2352 94.2102 39.7885 93.8928 39.7885C93.8223 39.7885 93.7115 39.8427 93.6465 39.909ZM131.958 39.909C131.721 40.1509 131.879 40.5722 132.207 40.5722C132.359 40.5722 132.548 40.3552 132.548 40.1803C132.548 39.9993 132.357 39.7885 132.194 39.7885C132.129 39.7885 132.023 39.8427 131.958 39.909ZM133.32 39.9338C133.156 40.1125 133.176 40.2496 133.392 40.4138C133.621 40.5883 133.867 40.4601 133.896 40.151C133.929 39.7939 133.573 39.6594 133.32 39.9338ZM223.548 40.1636C223.427 40.3395 223.432 40.4039 223.578 40.5942C223.745 40.811 224.788 40.8392 224.991 40.6324C225.138 40.482 225.142 40.2603 225.001 40.1294C224.816 39.9583 223.67 39.9852 223.548 40.1636ZM171.314 40.8886C171.259 40.9301 170.827 41.8185 170.353 42.8629C169.88 43.9073 169.43 44.8975 169.353 45.0633L169.213 45.3647L169.21 43.2138C169.206 40.857 169.208 40.8736 168.857 40.8736C168.488 40.8736 168.498 40.7871 168.498 44.1353C168.498 47.48 168.494 47.4445 168.846 47.4445C168.993 47.4445 169.206 47.2903 169.206 47.1847C169.206 47.163 169.366 46.803 169.56 46.3846C169.755 45.9662 169.915 45.616 169.915 45.6063C169.915 45.5967 170.082 45.2264 170.287 44.7835C170.492 44.3405 170.751 43.768 170.862 43.5112L171.066 43.0442L171.095 45.1087C171.112 46.2442 171.147 47.2088 171.175 47.2523C171.305 47.459 171.679 47.4515 171.818 47.2395C171.841 47.2031 171.861 45.7965 171.862 44.1138C171.863 41.1342 171.86 41.0513 171.745 40.9339C171.609 40.7958 171.457 40.7798 171.314 40.8886ZM1.10742 40.931C0.721951 41.0249 0.394032 41.3308 0.16753 41.808C-0.0539542 42.2746 -0.0566106 46.0941 0.164225 46.5704C0.743319 47.8192 2.74046 47.8063 3.27658 46.5503C3.37905 46.3103 3.38809 46.1145 3.38809 44.1363V41.9835L3.19624 41.657C2.80716 40.9947 1.99897 40.7138 1.10742 40.931ZM5.86928 40.9805C5.74844 41.0804 5.73286 41.1868 5.62908 42.6232C5.56804 43.4679 5.47773 44.6745 5.42838 45.3044C5.37897 45.9344 5.33806 46.5109 5.33735 46.5854C5.33641 46.6872 5.30152 46.7211 5.19768 46.7211C4.96587 46.7211 4.86386 46.8993 4.86386 47.3043C4.86386 47.7199 4.96593 47.8665 5.25518 47.8665C5.45429 47.8665 5.57224 47.7723 5.57224 47.6133C5.57224 47.5124 5.65529 47.5048 6.75286 47.5048C7.70249 47.5048 7.93348 47.5206 7.93348 47.5859C7.93348 47.8096 8.40502 47.9636 8.57101 47.7941C8.64887 47.7146 8.66824 46.9773 8.59545 46.8605C8.57095 46.8211 8.47839 46.7607 8.38979 46.7263L8.22863 46.6638V43.8625V41.0612L8.09741 40.9674C7.89097 40.8197 6.05062 40.8305 5.86928 40.9805ZM10.2035 41.0216L10.0586 41.1695V44.1798C10.0586 47.0528 10.0637 47.1965 10.1713 47.3323C10.2822 47.4723 10.3042 47.4749 11.4874 47.493C12.8367 47.5137 13.0101 47.4675 13.0101 47.0877C13.0101 46.7561 12.8956 46.7211 11.8101 46.7211H10.826V45.5456V44.37H11.3012C11.9115 44.37 12.1247 44.2706 12.1247 43.986C12.1247 43.6569 11.9911 43.5863 11.3674 43.5863H10.826V42.6258V41.6652L11.8344 41.6462C12.9303 41.6255 13.0101 41.5988 13.0101 41.2539C13.0101 40.906 12.8865 40.8736 11.5612 40.8736C10.3522 40.8736 10.3479 40.8741 10.2035 41.0216ZM15.4746 40.9596C15.0444 41.1164 14.6937 41.4716 14.554 41.8923C14.4413 42.2316 14.4606 46.2411 14.5763 46.5238C14.8592 47.2154 15.3008 47.4573 16.3454 47.4931C17.1519 47.5207 17.3784 47.4318 17.3784 47.0877C17.3784 46.7844 17.248 46.7329 16.4233 46.7109C15.1642 46.6773 15.1963 46.7429 15.1952 44.1983C15.194 41.6072 15.1453 41.708 16.4252 41.6559C17.1117 41.628 17.2239 41.6089 17.2959 41.5084C17.4127 41.3452 17.3983 41.135 17.2604 40.9941C17.1142 40.8448 15.8563 40.8205 15.4746 40.9596ZM18.9723 40.9941C18.8089 41.1609 18.7849 47.1842 18.9469 47.3497C19.0938 47.4997 19.2731 47.5201 20.1683 47.4885C21.3453 47.4469 21.7384 47.2647 22.0515 46.6154C22.2549 46.1935 22.2577 44.8429 22.0559 44.4247C21.7561 43.8034 21.3021 43.5863 20.3024 43.5863H19.5626V42.3238C19.5626 41.0875 19.5599 41.0593 19.4314 40.9674C19.2548 40.8411 19.1141 40.8493 18.9723 40.9941ZM23.7216 41.0216L23.5767 41.1695L23.578 44.1714C23.5792 46.9243 23.5878 47.1839 23.6813 47.3025C23.8369 47.4995 24.0067 47.5259 24.1873 47.3809L24.3441 47.2549L24.3457 46.0988L24.3472 44.9427L24.6059 44.593L24.8645 44.2433L24.9585 44.3804C25.0102 44.4557 25.0525 44.537 25.0525 44.561C25.0525 44.5849 25.2198 44.9655 25.4244 45.4066C25.629 45.8478 25.888 46.4221 26 46.6829C26.1945 47.136 26.4518 47.5048 26.5735 47.5048C26.6048 47.5048 26.7004 47.4485 26.7859 47.3798C26.9847 47.2202 26.9847 47.0376 26.7861 46.6063C26.7007 46.4208 26.4882 45.9628 26.3139 45.5886C26.1396 45.2144 25.997 44.8982 25.997 44.8859C25.997 44.8737 25.862 44.5744 25.6971 44.2208C25.5321 43.8673 25.4099 43.5442 25.4254 43.5029C25.4409 43.4615 25.7917 42.972 26.2049 42.4149C27.001 41.3418 27.0688 41.1849 26.8242 40.9827C26.5351 40.7436 26.4783 40.788 25.6909 41.8683C25.3525 42.3324 24.9178 42.9283 24.7247 43.1924L24.3736 43.6727L24.3577 42.3971L24.3418 41.1216L24.1874 40.9976C23.9871 40.8367 23.8982 40.8413 23.7216 41.0216ZM29.4673 40.9417C29.1584 41.031 28.7208 41.4462 28.5569 41.8057C28.42 42.1058 28.4184 42.1336 28.4184 44.1892C28.4184 46.5252 28.4338 46.6179 28.8971 47.0632C29.5046 47.6474 30.7669 47.6279 31.357 47.0253C31.7857 46.5874 31.782 46.6122 31.782 44.1896V42.015L31.6373 41.7234C31.4866 41.4196 31.2483 41.1788 30.9341 41.0129C30.7096 40.8944 29.7863 40.8496 29.4673 40.9417ZM33.9655 41.0695C33.8525 41.2588 33.849 41.3667 33.8631 44.2699L33.8776 47.2743L34.017 47.3896C34.1994 47.5404 34.347 47.5352 34.4951 47.3728C34.682 47.1681 34.6841 41.1848 34.4974 40.9941C34.3158 40.8086 34.1033 40.8387 33.9655 41.0695ZM40.32 40.9985L40.1644 41.1234V44.1567C40.1644 47.5261 40.1567 47.4596 40.5481 47.4596C40.9067 47.4596 40.9318 47.3495 40.9318 45.78V44.37H41.8777H42.8235L42.8186 45.8017L42.8136 47.2334L42.9681 47.3691C43.1575 47.5355 43.1791 47.5361 43.3742 47.3794L43.5303 47.2541L43.515 44.1415L43.4997 41.0289L43.3373 40.9361C43.1913 40.8527 43.1587 40.8527 43.0127 40.9361L42.8503 41.0287L42.8208 42.2925L42.7913 43.5562L41.8616 43.5728L40.9318 43.5894V42.3795C40.9318 41.1752 40.9311 41.1688 40.7869 41.0216C40.6102 40.841 40.5215 40.8366 40.32 40.9985ZM46.695 41.0092C46.6133 41.0849 46.5215 41.2648 46.4873 41.4161C46.4536 41.5653 46.3605 41.9315 46.2804 42.23C46.2004 42.5284 46.0838 42.9624 46.0215 43.1945C45.9591 43.4266 45.862 43.8064 45.8057 44.0385C45.7494 44.2706 45.6797 44.5147 45.6509 44.581C45.622 44.6473 45.5613 44.8643 45.5158 45.0633C45.4703 45.2622 45.3353 45.7871 45.2157 46.2297C44.9706 47.1372 44.969 47.2319 45.1968 47.405C45.4338 47.5851 45.6347 47.4204 45.7767 46.9298C45.8339 46.7321 45.9368 46.3737 46.0053 46.1333L46.13 45.6963H46.92H47.71L47.8287 46.1936C48.0567 47.1489 48.1047 47.2813 48.2692 47.4066L48.4288 47.5283L48.5911 47.4051C48.869 47.1941 48.8928 47.3337 48.0327 44.1289C47.8859 43.5818 47.7319 42.9986 47.6904 42.8328C47.2899 41.2331 47.1437 40.8736 46.894 40.8736C46.8651 40.8736 46.7756 40.9346 46.695 41.0092ZM50.3498 41.0272L50.1997 41.1926V44.1913C50.1997 47.0531 50.2048 47.1965 50.3125 47.3323C50.4245 47.4738 50.4338 47.4748 51.8473 47.4928L53.2693 47.5109V47.7519C53.2693 48.128 53.4084 48.3487 53.6454 48.3487C53.9714 48.3487 54.0367 48.2147 54.0367 47.5452C54.0367 46.9389 53.9514 46.7211 53.7138 46.7211C53.6388 46.7211 53.6246 46.3368 53.6105 43.9125L53.594 41.104L53.4546 40.9888C53.2759 40.841 53.1224 40.8427 52.9742 40.9941C52.8595 41.1113 52.8561 41.1951 52.8561 43.9179V46.7211H51.9116H50.9671V43.9294C50.9671 40.9293 50.9721 40.978 50.6597 40.9011C50.5327 40.8699 50.4691 40.8958 50.3498 41.0272ZM55.571 40.9947C55.4549 41.1133 55.4527 41.1808 55.4677 44.1983L55.483 47.2808L55.6385 47.3994C55.7777 47.5054 55.812 47.5092 55.9632 47.4352L56.1323 47.3524L56.1483 44.2185L56.1643 41.0846L56.0385 40.9791C55.8731 40.8404 55.7169 40.8457 55.571 40.9947ZM58.6286 40.9417C58.3488 41.0226 57.9064 41.4192 57.7384 41.74C57.6108 41.9836 57.6081 42.035 57.6081 44.1892C57.6081 46.6522 57.6028 46.6187 58.0604 47.0632C58.6893 47.6742 60.1107 47.6085 60.604 46.9456C60.9519 46.4783 60.9434 46.5478 60.9434 44.1995C60.9434 41.6111 60.9187 41.5082 60.1944 41.0747C59.8941 40.895 59.041 40.8226 58.6286 40.9417ZM62.5747 40.9985L62.4191 41.1234V44.1567C62.4191 47.5185 62.4124 47.4596 62.7969 47.4596C63.1446 47.4596 63.157 47.403 63.157 45.8147V44.37H64.1152H65.0734L65.0892 45.8255L65.105 47.2809L65.2674 47.4046L65.4297 47.5283L65.592 47.4046L65.7544 47.2808L65.7704 44.1827L65.7864 41.0846L65.6605 40.9791C65.5081 40.8513 65.3724 40.8451 65.2196 40.959C65.1143 41.0375 65.1027 41.1462 65.0755 42.3003L65.046 43.5562H64.1147H63.1833L63.1702 42.3301C63.1572 41.1218 63.155 41.1023 63.0176 40.9888C62.8406 40.8424 62.767 40.844 62.5747 40.9985ZM68.9529 41.0092C68.8147 41.14 68.6868 41.5557 68.2616 43.2548C68.2035 43.4869 68.031 44.1379 67.8782 44.7016C67.7254 45.2652 67.5486 45.9299 67.4854 46.1785C67.4221 46.4272 67.3416 46.7432 67.3064 46.8808C67.2305 47.1778 67.2612 47.2826 67.4631 47.4178C67.7294 47.5959 67.9975 47.3058 68.113 46.7146C68.1349 46.6021 68.2065 46.327 68.272 46.1032L68.3911 45.6963H69.1784H69.9657L70.0597 46.1032C70.3564 47.3869 70.5178 47.6541 70.8458 47.4051C71.1191 47.1976 71.1207 47.2069 70.3278 44.2796C70.193 43.7823 70.0443 43.2126 69.9972 43.0136C69.9502 42.8147 69.8618 42.4756 69.8008 42.2601C69.4428 40.9957 69.4509 41.0168 69.2948 40.9442C69.1014 40.8542 69.1205 40.8505 68.9529 41.0092ZM74.4018 40.9826C74.2758 41.0867 74.2021 41.2992 73.6658 43.1041C73.5919 43.3527 73.4069 43.9631 73.2547 44.4604C73.1024 44.9578 72.9389 45.5139 72.8911 45.6963C72.8433 45.8786 72.7807 46.0821 72.752 46.1484C72.6273 46.4358 72.4572 47.1408 72.4909 47.2304C72.5112 47.2843 72.6078 47.3706 72.7056 47.4223C73.0295 47.5933 73.138 47.4376 73.4695 46.3264C73.6273 45.7975 73.8383 45.0934 73.9383 44.7619C74.0383 44.4303 74.1728 43.9827 74.2372 43.7672C74.3015 43.5517 74.3894 43.2668 74.4325 43.1342C74.4756 43.0016 74.5946 42.615 74.6969 42.2752L74.883 41.6573H75.2035H75.524V44.3672C75.524 47.2432 75.5305 47.3129 75.8068 47.4415C75.9341 47.5007 75.9829 47.4934 76.1102 47.3964L76.2619 47.2808L76.2772 44.1983C76.2956 40.4878 76.4097 40.8736 75.2944 40.8736C74.6485 40.8736 74.5136 40.89 74.4018 40.9826ZM77.8262 40.9941C77.7112 41.1116 77.7082 41.1945 77.7091 44.1741C77.7096 45.8568 77.7295 47.2633 77.7533 47.2998C77.8598 47.4627 78.0848 47.5048 78.8492 47.5048C80.5168 47.5048 81.0179 47.088 81.062 45.6641C81.0963 44.552 80.8996 44.0884 80.2503 43.7521C79.9505 43.5969 79.882 43.5863 79.1734 43.5863H78.4165V42.3238C78.4165 41.0875 78.4138 41.0593 78.2853 40.9674C78.1087 40.8411 77.9681 40.8493 77.8262 40.9941ZM82.6662 40.9947C82.5501 41.1133 82.5479 41.1808 82.5629 44.1983L82.5782 47.2808L82.7327 47.3985C82.8781 47.5094 82.8978 47.5106 83.0721 47.4185L83.2571 47.3208V45.8454V44.37H84.2016H85.1461V45.7516C85.1461 46.5115 85.1626 47.1771 85.1827 47.2308C85.2833 47.4984 85.7177 47.5246 85.8506 47.271C85.9414 47.0977 85.9374 41.2945 85.8463 41.0904C85.7405 40.8531 85.4529 40.8174 85.2821 41.0202C85.1499 41.1772 85.1461 41.2158 85.1461 42.384V43.5863H84.2016H83.2571V42.3238C83.2571 41.0875 83.2544 41.0593 83.1259 40.9674C82.9491 40.841 82.8086 40.8493 82.6662 40.9947ZM88.3093 40.9484C88.1629 40.9879 87.965 41.1236 87.7688 41.3189C87.2904 41.7954 87.2712 41.9059 87.2712 44.1758C87.2712 46.3226 87.3047 46.5584 87.6683 46.9694C88.338 47.7264 89.8078 47.6498 90.3858 46.8278C90.67 46.4235 90.7101 46.022 90.6858 43.8227L90.6655 41.9793L90.4871 41.6847C90.0625 40.9834 89.2265 40.7008 88.3093 40.9484ZM92.9382 40.9941C92.8232 41.1115 92.8201 41.1951 92.8201 44.163C92.8201 46.0249 92.8425 47.254 92.8776 47.321C92.9617 47.4814 93.2179 47.529 93.3872 47.4157L93.5285 47.3211V44.1971C93.5285 41.2472 93.5225 41.0676 93.4205 40.9733C93.2754 40.8392 93.0817 40.8475 92.9382 40.9941ZM100.833 40.9489C100.714 41.0407 100.629 41.2547 100.492 41.808C100.434 42.0401 100.316 42.4877 100.229 42.8026C100.141 43.1176 100.018 43.5788 99.954 43.8275C99.89 44.0761 99.7875 44.4695 99.726 44.7016C99.0575 47.225 99.0477 47.2961 99.3489 47.4362C99.6794 47.59 99.8074 47.3671 100.114 46.1032L100.213 45.6963H101H101.787L101.853 45.9223C101.889 46.0467 101.958 46.3112 102.005 46.5101C102.208 47.361 102.41 47.619 102.714 47.4157C102.911 47.284 102.941 47.0845 102.824 46.68C102.768 46.4871 102.688 46.1936 102.646 46.0278C102.604 45.862 102.499 45.4687 102.414 45.1537C102.329 44.8387 102.206 44.3776 102.141 44.1289C102.076 43.8802 101.973 43.4869 101.912 43.2548C101.851 43.0227 101.735 42.5886 101.655 42.2902C101.574 41.9918 101.468 41.5993 101.42 41.4181C101.298 40.9647 101.059 40.7736 100.833 40.9489ZM104.451 41.0061C104.332 41.1365 104.33 41.187 104.345 44.2097L104.361 47.2808L104.516 47.3994C104.655 47.5054 104.69 47.5092 104.841 47.4353L105.01 47.3526L105.026 46.1817C105.041 45.0597 105.048 45.0031 105.18 44.8259C105.256 44.7241 105.385 44.5413 105.465 44.4197L105.612 44.1985L105.837 44.6912C106.922 47.0748 107.038 47.3111 107.169 47.4048C107.368 47.5469 107.696 47.3656 107.696 47.1138C107.696 46.9992 107.373 46.2596 106.466 44.2974C106.089 43.4808 106.052 43.6282 106.925 42.4433C107.349 41.8677 107.696 41.3451 107.696 41.2819C107.696 41.0112 107.435 40.8177 107.196 40.9113C107.112 40.9443 105.532 43.0424 105.262 43.4807C105.063 43.8034 105.04 43.6864 105.04 42.354C105.04 41.0864 105.037 41.0594 104.908 40.9674C104.728 40.8384 104.594 40.8498 104.451 41.0061ZM110.801 40.9521C110.701 41.0271 110.49 41.6708 110.236 42.6821C110.173 42.9307 110.053 43.3919 109.969 43.7069C109.884 44.0219 109.764 44.4763 109.7 44.7167C109.637 44.957 109.533 45.3504 109.469 45.5908C109.052 47.1577 109.041 47.3038 109.325 47.4362C109.651 47.5878 109.838 47.2505 110.116 46.0128L110.187 45.6963H110.971H111.756L111.847 45.9833C111.898 46.1412 111.968 46.4057 112.004 46.5711C112.16 47.2977 112.345 47.5496 112.64 47.4381C112.849 47.3594 112.92 47.1374 112.835 46.8299C112.796 46.6871 112.716 46.3805 112.657 46.1484C112.598 45.9163 112.425 45.2652 112.272 44.7016C112.119 44.1379 111.947 43.4869 111.889 43.2548C111.307 40.9295 111.183 40.667 110.801 40.9521ZM115.397 40.9581C115.271 41.0522 115.283 40.9522 115.077 43.6768C115.01 44.572 114.929 45.5757 114.899 45.9073C114.868 46.2388 114.842 46.5576 114.841 46.6156C114.84 46.6795 114.793 46.7211 114.723 46.7211C114.409 46.7211 114.231 47.4015 114.458 47.7325C114.623 47.9726 115.134 47.8538 115.134 47.5754C115.134 47.5239 115.441 47.5049 116.27 47.5051L117.407 47.5056L117.507 47.686C117.628 47.9024 117.943 47.9394 118.106 47.7562C118.339 47.4935 118.18 46.765 117.879 46.7106C117.763 46.6897 117.76 46.6358 117.745 43.891C117.732 41.3927 117.72 41.0809 117.633 40.9832C117.504 40.8375 115.588 40.816 115.397 40.9581ZM119.738 40.9941C119.623 41.1116 119.62 41.1945 119.621 44.1741C119.622 47.3261 119.622 47.3193 119.838 47.4354C120.05 47.5498 122.157 47.5292 122.322 47.4113C122.524 47.2665 122.588 47.1061 122.506 46.9471C122.394 46.7302 122.356 46.723 121.317 46.722L120.329 46.7211V45.5456V44.37H120.847C121.465 44.37 121.627 44.2898 121.627 43.9841C121.627 43.657 121.493 43.5863 120.87 43.5863H120.329V42.6258V41.6652L121.337 41.6462C122.316 41.6277 122.35 41.6228 122.459 41.4848C122.608 41.2968 122.601 41.1996 122.427 41.0216C122.221 40.8108 119.941 40.7875 119.738 40.9941ZM124.086 40.9844C123.996 41.0853 123.989 41.3743 124.003 44.188L124.018 47.2808L124.172 47.3985C124.318 47.5093 124.338 47.5105 124.511 47.4189L124.696 47.3216L124.711 44.9622L124.726 42.6029L125.285 43.5437C126.099 44.9132 126.108 44.9132 126.914 43.5475L127.442 42.6519L127.471 44.9557C127.504 47.4845 127.5 47.4596 127.861 47.4596C128.245 47.4596 128.239 47.5174 128.239 44.1658C128.239 40.8476 128.241 40.8725 127.896 40.8745C127.681 40.8757 127.656 40.9004 127.356 41.386C127.213 41.6181 127.012 41.9436 126.909 42.1094C126.805 42.2752 126.591 42.6345 126.432 42.9078C126.273 43.1811 126.12 43.3969 126.091 43.3873C126.062 43.3778 125.836 43.0321 125.589 42.6191C125.119 41.8355 125.043 41.7106 124.717 41.1901C124.498 40.8402 124.277 40.7684 124.086 40.9844ZM129.783 41.0137L129.654 41.1538L129.67 44.2173L129.685 47.2808L129.841 47.3994C129.98 47.5054 130.014 47.5092 130.165 47.4352L130.334 47.3524L130.35 44.2185L130.366 41.0846L130.24 40.9791C130.07 40.8363 129.937 40.8464 129.783 41.0137ZM132.609 41.0055C132.444 41.1868 132.418 47.1823 132.582 47.3497C132.763 47.5344 132.969 47.5382 133.119 47.3599L133.256 47.1966V44.212C133.256 41.2356 133.245 41.0488 133.056 40.9197C132.932 40.8352 132.729 40.8742 132.609 41.0055ZM138.923 40.9941C138.739 41.1822 138.776 41.3328 139.207 42.1399C139.427 42.5542 139.759 43.1809 139.943 43.5328L140.279 44.1725L139.949 44.7988C139.767 45.1432 139.498 45.6556 139.352 45.9374C139.205 46.2192 139.02 46.564 138.941 46.7035C138.766 47.0112 138.781 47.2413 138.987 47.397C139.223 47.5762 139.389 47.4588 139.674 46.9124C139.807 46.658 140.094 46.1148 140.312 45.7054L140.708 44.9609L141.076 45.6752C142.038 47.5441 142.101 47.6258 142.391 47.4051C142.631 47.2233 142.624 47.0299 142.36 46.5275C142.232 46.2858 141.922 45.6948 141.669 45.214C141.416 44.7332 141.185 44.3087 141.156 44.2704C141.122 44.2259 141.164 44.0852 141.273 43.8786C141.827 42.8278 142.438 41.6666 142.505 41.5367C142.629 41.2949 142.603 41.0702 142.436 40.9588C142.181 40.7878 142.022 40.8848 141.762 41.3718C141.359 42.1254 140.992 42.8232 140.858 43.089C140.694 43.4158 140.702 43.4186 140.461 42.938C140.005 42.0279 139.443 41.0198 139.352 40.9489C139.212 40.84 139.058 40.8561 138.923 40.9941ZM145.727 40.9662C145.656 41.0171 145.567 41.1731 145.53 41.3128C145.492 41.4525 145.427 41.6889 145.385 41.8381C145.343 41.9873 145.237 42.3807 145.151 42.7122C145.064 43.0438 144.931 43.5456 144.856 43.8275C144.781 44.1093 144.648 44.6112 144.561 44.9427C144.475 45.2743 144.37 45.6676 144.328 45.8168C143.946 47.1809 143.939 47.3204 144.25 47.4381C144.544 47.5489 144.692 47.3704 144.858 46.7078C144.91 46.4996 144.993 46.1869 145.041 46.0128L145.13 45.6963H145.913H146.697L146.889 46.4347C147.156 47.4608 147.27 47.6218 147.579 47.4151C147.874 47.2172 147.882 47.2824 147.304 45.1236C147.135 44.4936 146.963 43.8425 146.922 43.6768C146.88 43.511 146.761 43.0634 146.656 42.6821C146.552 42.3008 146.43 41.8315 146.385 41.6392C146.222 40.9474 146.029 40.7501 145.727 40.9662ZM149.387 40.9641L149.254 41.0612L149.255 44.1474C149.255 45.8447 149.275 47.2633 149.299 47.2998C149.395 47.4474 149.603 47.5119 149.741 47.4376C149.955 47.3223 149.96 47.2891 149.961 46.0206L149.962 44.8077L150.744 44.7803C151.664 44.7479 151.842 44.6831 152.234 44.2377C152.553 43.8749 152.59 43.7212 152.587 42.7424C152.584 41.7623 152.392 41.3733 151.733 41.0161C151.438 40.8558 149.591 40.8149 149.387 40.9641ZM154.227 40.9653C154.097 41.0595 154.094 41.0835 154.095 42.3087C154.095 43.7064 154.131 43.9158 154.427 44.2502C154.782 44.6518 155.073 44.7542 155.939 44.782L156.692 44.8062V45.9981C156.692 47.3222 156.727 47.4596 157.069 47.4596C157.442 47.4596 157.43 47.571 157.43 44.1817V41.104L157.29 40.9888C157.111 40.841 156.958 40.8427 156.81 40.9941C156.698 41.108 156.692 41.1951 156.692 42.5615V44.0083L155.998 44.0074C154.845 44.006 154.803 43.9447 154.803 42.2876C154.803 41.4605 154.782 41.1101 154.729 41.0391C154.617 40.8897 154.38 40.8548 154.227 40.9653ZM159.888 40.9427C159.561 41.0388 159.242 41.2927 159.039 41.6198L158.846 41.9285L158.829 44.0673C158.809 46.4642 158.817 46.5202 159.223 46.9799C159.81 47.6431 161.132 47.6628 161.764 47.0179C162.172 46.6006 162.182 46.5375 162.182 44.1363V41.9835L161.99 41.657C161.597 40.989 160.731 40.6948 159.888 40.9427ZM163.775 40.9941C163.612 41.1609 163.588 47.1842 163.75 47.3497C163.897 47.4993 164.073 47.5195 165 47.4934C166.57 47.4492 167.02 47.0092 167.02 45.5154C167.02 44.6717 166.939 44.3878 166.595 44.0247C166.428 43.8478 166.419 43.8204 166.5 43.7233C166.856 43.2956 166.923 42.264 166.63 41.7098C166.442 41.353 166.07 41.031 165.737 40.9366C165.308 40.8149 163.911 40.8559 163.775 40.9941ZM173.411 40.9674C173.198 41.1197 173.245 41.3614 173.626 42.0688C174.474 43.6446 174.696 44.0779 174.696 44.1596C174.696 44.236 174.163 45.3229 174.046 45.4853C174.023 45.5184 173.838 45.864 173.637 46.2533C173.233 47.0355 173.208 47.2056 173.471 47.4051C173.695 47.5753 173.859 47.4439 174.173 46.8417C174.823 45.5964 175.132 45.0331 175.165 45.0331C175.185 45.0331 175.282 45.1891 175.38 45.3798C175.479 45.5704 175.726 46.0519 175.93 46.4498C176.265 47.1009 176.558 47.5048 176.696 47.5048C176.818 47.5048 177.057 47.2439 177.057 47.1107C177.057 47.0314 176.822 46.5247 176.535 45.9848C176.247 45.4448 175.914 44.8174 175.794 44.5905L175.577 44.178L175.886 43.5958C176.056 43.2756 176.265 42.878 176.35 42.7122C176.436 42.5464 176.63 42.1747 176.781 41.8861C177.099 41.2815 177.123 41.1013 176.905 40.9554C176.6 40.7513 176.501 40.8584 175.836 42.1037C175.501 42.7302 175.227 43.2659 175.227 43.294C175.227 43.4205 175.122 43.3236 175.005 43.089C174.934 42.9481 174.775 42.6429 174.651 42.4108C174.527 42.1787 174.311 41.7718 174.169 41.5065C173.821 40.8531 173.695 40.7637 173.411 40.9674ZM182.134 40.9941C181.996 41.1354 181.982 41.3452 182.1 41.5101C182.17 41.6089 182.272 41.6304 182.749 41.648L183.315 41.6689V44.457C183.315 47.037 183.322 47.2518 183.418 47.3369C183.578 47.4792 183.684 47.4954 183.861 47.4045L184.023 47.3208V44.489V41.6573H184.557C185.183 41.6573 185.43 41.5112 185.354 41.187C185.282 40.8834 185.23 40.8736 183.687 40.8736C182.331 40.8736 182.246 40.8802 182.134 40.9941ZM186.883 41.0216L186.738 41.1695V44.1798C186.738 47.0528 186.744 47.1965 186.851 47.3323C186.962 47.4723 186.984 47.4749 188.167 47.493C189.517 47.5137 189.69 47.4675 189.69 47.0877C189.69 46.7561 189.575 46.7211 188.49 46.7211H187.506V45.5456V44.37H188C188.573 44.37 188.805 44.2502 188.805 43.953C188.805 43.6594 188.654 43.5863 188.047 43.5863H187.506V42.6258V41.6652L188.514 41.6462C189.61 41.6255 189.69 41.5988 189.69 41.2539C189.69 40.906 189.566 40.8736 188.241 40.8736C187.032 40.8736 187.028 40.8741 186.883 41.0216ZM191.248 41.0253C191.065 41.2124 191.076 41.2587 191.497 42.0347C191.672 42.3583 191.815 42.6333 191.815 42.6457C191.815 42.6581 191.988 42.9834 192.199 43.3685C192.41 43.7537 192.583 44.1092 192.583 44.1587C192.583 44.2487 192.252 44.9103 191.785 45.7565C191.188 46.8382 191.091 47.0795 191.192 47.2367C191.502 47.72 191.669 47.5728 192.414 46.1592L193.042 44.9671L193.337 45.5276C193.499 45.8359 193.758 46.3323 193.913 46.6307C194.288 47.3527 194.305 47.379 194.442 47.4268C194.68 47.5101 194.944 47.346 194.944 47.1141C194.944 47.0422 194.728 46.5785 194.465 46.0836C194.201 45.5887 193.868 44.9594 193.724 44.6851L193.461 44.1863L194.037 43.0875C195.009 41.2311 194.964 41.3276 194.921 41.1515C194.899 41.0615 194.814 40.9588 194.73 40.9196C194.456 40.7918 194.327 40.9423 193.713 42.1094C193.398 42.7062 193.119 43.231 193.091 43.2755C193.036 43.365 192.984 43.2827 192.43 42.2174C191.677 40.7717 191.586 40.6799 191.248 41.0253ZM196.575 40.9985L196.42 41.1234V44.1661V47.2088L196.568 47.3606C196.736 47.5324 196.911 47.5159 197.084 47.312C197.176 47.2033 197.187 47.0362 197.187 45.78V44.37H198.13H199.074L199.09 45.8255L199.105 47.2809L199.268 47.4046L199.43 47.5283L199.592 47.4046L199.755 47.2808L199.771 44.1827L199.787 41.0846L199.661 40.9791C199.496 40.8406 199.339 40.8456 199.194 40.9941C199.084 41.1069 199.076 41.1951 199.076 42.3505V43.5863H198.131H197.187V42.3779C197.187 41.1753 197.186 41.1688 197.042 41.0216C196.865 40.841 196.777 40.8366 196.575 40.9985ZM202.183 40.9586C201.83 41.0921 201.542 41.3597 201.361 41.7206L201.196 42.0491L201.213 44.2495C201.231 46.4484 201.231 46.4499 201.371 46.6808C201.726 47.2633 202.127 47.472 202.883 47.4687C203.669 47.4651 204.089 47.2251 204.432 46.5847C204.583 46.303 204.624 42.4344 204.481 41.9341C204.376 41.5646 204.068 41.2027 203.707 41.0255C203.399 40.8738 202.509 40.8348 202.183 40.9586ZM207.945 40.9791C207.813 41.099 207.774 41.1996 207.518 42.0792C207.417 42.4274 207.31 42.7724 207.28 42.8461C207.251 42.9197 207.185 43.1502 207.134 43.3585C207.083 43.5667 207.017 43.7913 206.988 43.8576C206.958 43.9239 206.851 44.263 206.749 44.6112C206.647 44.9593 206.528 45.3526 206.484 45.4853C206.374 45.8222 206.113 46.7178 206.067 46.917C205.973 47.3245 206.277 47.6187 206.565 47.3993C206.714 47.2855 206.794 47.076 207.134 45.9073C207.221 45.6089 207.34 45.2155 207.399 45.0331C207.52 44.6591 207.668 44.1695 207.902 43.3753C207.989 43.0769 208.109 42.6836 208.167 42.5012C208.226 42.3189 208.304 42.0543 208.34 41.9135L208.407 41.6573H208.759H209.11L209.125 44.469L209.141 47.2808L209.296 47.3989C209.455 47.5203 209.658 47.4784 209.774 47.2998C209.798 47.2633 209.818 45.8447 209.819 44.1474L209.82 41.0612L209.688 40.9674C209.486 40.8228 208.108 40.832 207.945 40.9791ZM212.328 40.931C212.007 41.0129 211.718 41.2388 211.49 41.586L211.266 41.9285L211.248 44.0673C211.229 46.4642 211.236 46.5202 211.643 46.9799C212.233 47.6476 213.551 47.6668 214.18 47.0168C214.594 46.5883 214.601 46.539 214.601 44.1363V41.9835L214.409 41.657C214.022 40.9968 213.198 40.7096 212.328 40.931ZM216.141 40.9791L216.015 41.0846L216.031 44.1827L216.047 47.2808L216.203 47.3994C216.342 47.5054 216.376 47.5092 216.528 47.4352L216.697 47.3524L216.712 44.5088L216.727 41.6652L217.728 41.6462C218.792 41.6259 218.85 41.6101 218.937 41.3117C218.966 41.2132 218.937 41.1362 218.828 41.0253L218.68 40.8736H217.473C216.412 40.8736 216.252 40.8862 216.141 40.9791ZM220.504 40.9947C220.388 41.1133 220.385 41.1808 220.4 44.1983L220.416 47.2808L220.57 47.3985C220.716 47.5094 220.735 47.5106 220.91 47.4185L221.095 47.3208V44.191V41.0612L220.963 40.9674C220.787 40.841 220.646 40.8493 220.504 40.9947ZM222.749 40.9926C222.568 41.1775 222.566 41.2095 222.584 44.3185C222.599 47.1049 222.605 47.2574 222.712 47.3779C222.969 47.668 223.201 47.4957 223.514 46.7814C223.623 46.5327 223.862 46.0037 224.044 45.6058C224.226 45.208 224.56 44.4707 224.786 43.9674L225.197 43.0525L225.227 45.1634L225.256 47.2744L225.397 47.391C225.548 47.5151 225.718 47.4989 225.876 47.3455C225.968 47.2564 226.049 41.7211 225.965 41.2523C225.899 40.8839 225.581 40.7496 225.356 40.9959C225.295 41.0632 225.063 41.5311 224.842 42.0358C224.621 42.5405 224.303 43.2518 224.136 43.6165C223.969 43.9812 223.728 44.5154 223.6 44.8036L223.367 45.3275L223.338 43.1861C223.31 41.1546 223.302 41.0402 223.194 40.9591C223.035 40.8409 222.887 40.8521 222.749 40.9926ZM2.33155 41.7951C2.6695 42.0273 2.68898 42.1735 2.66844 44.3205C2.65097 46.1496 2.645 46.2374 2.52647 46.4003C2.2466 46.7851 1.34762 46.8353 1.00465 46.4852L0.820237 46.2969L0.803177 44.2665C0.784523 42.0491 0.794558 41.9678 1.11067 41.7709C1.38776 41.5984 2.06485 41.6118 2.33155 41.7951ZM7.46123 44.1892V46.7211H6.7463H6.03132L6.06662 46.5252C6.10765 46.2972 6.25865 44.3401 6.30959 43.3753C6.32884 43.0106 6.37382 42.4749 6.40953 42.1847L6.47447 41.6573H6.96785H7.46123V44.1892ZM30.7255 41.795C31.0478 42.0162 31.067 42.151 31.067 44.1892C31.067 46.6311 31.0438 46.6909 30.0964 46.6909C29.6147 46.6909 29.5945 46.6852 29.4071 46.4939L29.2142 46.2969L29.1971 44.2665C29.1785 42.0491 29.1885 41.9678 29.5046 41.7709C29.7816 41.5985 30.4587 41.6118 30.7255 41.795ZM59.8273 41.7506C60.2259 41.9611 60.2345 42.0124 60.2347 44.1953C60.235 46.1431 60.2337 46.1626 60.1 46.3655C59.8247 46.7834 58.9208 46.8536 58.5599 46.4852L58.3755 46.2969L58.3584 44.2665C58.3398 42.0491 58.3498 41.9678 58.6659 41.7709C58.8986 41.6261 59.5692 41.6143 59.8273 41.7506ZM89.5398 41.7497C89.9107 41.9294 89.9276 42.0374 89.9276 44.2222C89.9276 46.1501 89.9255 46.1835 89.7948 46.3909C89.4823 46.8865 88.3829 46.8227 88.112 46.2933C88.0559 46.1835 88.0415 45.6536 88.053 44.1091L88.0681 42.0698L88.2886 41.8635C88.5451 41.6236 89.1634 41.5673 89.5398 41.7497ZM117.023 44.1892V46.7211H116.308H115.594L115.632 46.2539C115.653 45.9969 115.71 45.2034 115.758 44.4906C115.807 43.7777 115.87 42.9503 115.899 42.6519C115.928 42.3535 115.954 42.0077 115.956 41.8833L115.96 41.6573H116.492H117.023V44.1892ZM151.495 41.7559C151.79 41.9338 151.851 42.1216 151.851 42.8421C151.85 43.8773 151.721 44.0029 150.656 44.0062L149.962 44.0083V42.8328V41.6573H150.647C151.174 41.6573 151.369 41.6799 151.495 41.7559ZM161.1 41.7748C161.444 41.9888 161.444 41.9854 161.444 44.1998C161.444 46.1665 161.44 46.2353 161.32 46.4002C161.027 46.8034 160.119 46.8366 159.778 46.4566L159.584 46.2406V44.2172C159.584 42.0086 159.594 41.9344 159.924 41.7516C160.171 41.6149 160.866 41.6287 161.1 41.7748ZM165.697 41.7532C165.971 41.8858 166.105 42.2525 166.062 42.7449C166.002 43.4192 165.747 43.6019 164.908 43.5736L164.395 43.5562L164.379 42.6849C164.37 42.2056 164.376 41.7784 164.392 41.7354C164.437 41.616 165.442 41.6297 165.697 41.7532ZM203.446 41.7487C203.789 41.9299 203.798 41.9941 203.798 44.2383C203.798 46.5619 203.805 46.5288 203.308 46.666C202.737 46.824 202.182 46.6569 202.004 46.273C201.863 45.9702 201.884 42.1653 202.028 41.9882C202.292 41.661 203.041 41.5346 203.446 41.7487ZM213.52 41.7748C213.864 41.9888 213.863 41.9854 213.863 44.1998C213.863 46.1665 213.859 46.2353 213.74 46.4002C213.482 46.7541 212.579 46.8343 212.258 46.5318C211.959 46.2506 211.945 46.1426 211.945 44.1585C211.945 42.1199 211.972 41.958 212.344 41.7518C212.591 41.6149 213.285 41.6285 213.52 41.7748ZM47.2978 44.2296C47.368 44.5006 47.4415 44.7651 47.4611 44.8174C47.4922 44.9 47.4222 44.9126 46.9298 44.9126C46.515 44.9126 46.3629 44.8923 46.3636 44.8372C46.3649 44.7311 46.5886 43.8463 46.8171 43.0438L46.9115 42.7122L47.0408 43.2246C47.112 43.5065 47.2275 43.9587 47.2978 44.2296ZM101.258 43.6539C101.26 43.7076 101.313 43.917 101.377 44.1194C101.44 44.3217 101.509 44.5829 101.531 44.6999L101.57 44.9126H100.996C100.474 44.9126 100.426 44.9031 100.462 44.8071C100.5 44.7077 100.564 44.4528 100.863 43.2257L100.988 42.7143L101.121 43.1352C101.194 43.3668 101.255 43.6001 101.258 43.6539ZM111.33 44.0083C111.441 44.4228 111.532 44.7958 111.532 44.8372C111.533 44.8923 111.38 44.9126 110.965 44.9126C110.404 44.9126 110.398 44.9111 110.439 44.7769C110.505 44.5602 110.708 43.7807 110.842 43.2246L110.966 42.7122L111.047 42.9835C111.092 43.1327 111.219 43.5939 111.33 44.0083ZM146.455 44.7769C146.492 44.9108 146.485 44.9126 145.925 44.9126C145.278 44.9126 145.301 44.9412 145.467 44.3613C145.528 44.1506 145.653 43.6981 145.745 43.3559L145.912 42.7335L146.164 43.6874C146.303 44.212 146.434 44.7024 146.455 44.7769ZM69.442 43.7672C69.5774 44.2811 69.7027 44.7491 69.7204 44.8071C69.7497 44.9025 69.6987 44.9126 69.1851 44.9126C68.77 44.9126 68.6175 44.8923 68.6178 44.8372C68.6181 44.7666 69.0572 43.0528 69.1218 42.8694C69.1679 42.7389 69.1802 42.7736 69.442 43.7672ZM21.2509 44.575L21.4516 44.7799L21.4513 45.4943C21.451 46.6069 21.3325 46.7201 20.1677 46.7207L19.5626 46.7211V45.5456V44.37H20.3064H21.0502L21.2509 44.575ZM80.1048 44.575L80.3055 44.7799V45.5314C80.3055 46.62 80.1974 46.7201 79.0216 46.7207L78.4165 46.7211V45.5456V44.37H79.1603H79.9041L80.1048 44.575ZM165.917 44.4392C166.218 44.6036 166.251 44.7113 166.253 45.5351C166.256 46.6374 166.12 46.7552 164.897 46.7096L164.395 46.6909L164.379 45.5305L164.363 44.37H165.077C165.5 44.37 165.842 44.3981 165.917 44.4392Z" fill="#548EF3"/>
</svg>
